Coordinates
nRows=328
nColumns=2
inDegrees=yes
endheader
time	ankle_angle_r	
8.5494	 -0.473063	
8.58266	 -0.478404	
8.61593	 -0.479740	
8.64919	 -0.481029	
8.68246	 -0.484283	
8.71573	 -0.486463	
8.74899	 -0.487328	
8.78226	 -0.488090	
8.81552	 -0.489062	
8.84879	 -0.491173	
8.88206	 -0.493900	
8.91532	 -0.497294	
8.94859	 -0.502487	
8.98185	 -0.506920	
9.01512	 -0.508732	
9.04839	 -0.510542	
9.08165	 -0.513973	
9.11492	 -0.518980	
9.14819	 -0.524124	
9.18145	 -0.525662	
9.21472	 -0.523944	
9.24798	 -0.523597	
9.28125	 -0.525894	
9.31452	 -0.529793	
9.34778	 -0.534084	
9.38105	 -0.536002	
9.41431	 -0.535112	
9.44758	 -0.534203	
9.48085	 -0.535269	
9.51411	 -0.539001	
9.54738	 -0.542982	
9.58065	 -0.543199	
9.61391	 -0.540754	
9.64718	 -0.538190	
9.68044	 -0.535147	
9.71371	 -0.533414	
9.74698	 -0.534242	
9.78024	 -0.534851	
9.81351	 -0.535244	
9.84677	 -0.536722	
9.88004	 -0.536443	
9.91331	 -0.533439	
9.94657	 -0.530276	
9.97984	 -0.528501	
10.0131	 -0.530264	
10.0464	 -0.535168	
10.0796	 -0.537341	
10.1129	 -0.535273	
10.1462	 -0.532534	
10.1794	 -0.529199	
10.2127	 -0.525218	
10.246	 -0.520866	
10.2792	 -0.513118	
10.3125	 -0.503941	
10.3458	 -0.499635	
10.379	 -0.500110	
10.4123	 -0.501784	
10.4456	 -0.502215	
10.4788	 -0.500018	
10.5121	 -0.496896	
10.5454	 -0.493722	
10.5786	 -0.489417	
10.6119	 -0.485546	
10.6452	 -0.481756	
10.6784	 -0.474649	
10.7117	 -0.465794	
10.745	 -0.459409	
10.7782	 -0.455612	
10.8115	 -0.451792	
10.8448	 -0.446310	
10.878	 -0.441749	
10.9113	 -0.442490	
10.9446	 -0.447534	
10.9778	 -0.452020	
11.0111	 -0.452652	
11.0444	 -0.448971	
11.0776	 -0.445799	
11.1109	 -0.447969	
11.1442	 -0.450089	
11.1774	 -0.445032	
11.2107	 -0.435722	
11.244	 -0.427851	
11.2772	 -0.424675	
11.3105	 -0.427978	
11.3437	 -0.433557	
11.377	 -0.436554	
11.4103	 -0.438712	
11.4435	 -0.440348	
11.4768	 -0.439696	
11.5101	 -0.439726	
11.5433	 -0.441908	
11.5766	 -0.444996	
11.6099	 -0.450473	
11.6431	 -0.456836	
11.6764	 -0.461616	
11.7097	 -0.468968	
11.7429	 -0.479469	
11.7762	 -0.486679	
11.8095	 -0.490026	
11.8427	 -0.492879	
11.876	 -0.494585	
11.9093	 -0.494845	
11.9425	 -0.495201	
11.9758	 -0.496286	
12.0091	 -0.498655	
12.0423	 -0.503617	
12.0756	 -0.511640	
12.1089	 -0.518812	
12.1421	 -0.520647	
12.1754	 -0.520549	
12.2087	 -0.523901	
12.2419	 -0.527789	
12.2752	 -0.527097	
12.3085	 -0.522881	
12.3417	 -0.519395	
12.375	 -0.519750	
12.4083	 -0.522957	
12.4415	 -0.525621	
12.4748	 -0.528492	
12.5081	 -0.531553	
12.5413	 -0.530853	
12.5746	 -0.528955	
12.6079	 -0.530147	
12.6411	 -0.531434	
12.6744	 -0.532794	
12.7077	 -0.537170	
12.7409	 -0.541482	
12.7742	 -0.542876	
12.8075	 -0.541220	
12.8407	 -0.536618	
12.874	 -0.533568	
12.9073	 -0.534853	
12.9405	 -0.536034	
12.9738	 -0.536231	
13.0071	 -0.538733	
13.0403	 -0.541890	
13.0736	 -0.543289	
13.1069	 -0.542251	
13.1401	 -0.536514	
13.1734	 -0.529079	
13.2067	 -0.527405	
13.2399	 -0.531179	
13.2732	 -0.536045	
13.3065	 -0.540509	
13.3397	 -0.541709	
13.373	 -0.538917	
13.4062	 -0.535276	
13.4395	 -0.530765	
13.4728	 -0.525780	
13.506	 -0.523857	
13.5393	 -0.524042	
13.5726	 -0.521572	
13.6058	 -0.514814	
13.6391	 -0.506765	
13.6724	 -0.501131	
13.7056	 -0.496988	
13.7389	 -0.492653	
13.7722	 -0.490451	
13.8054	 -0.489816	
13.8387	 -0.487660	
13.872	 -0.485041	
13.9052	 -0.481374	
13.9385	 -0.473126	
13.9718	 -0.461202	
14.005	 -0.448196	
14.0383	 -0.436550	
14.0716	 -0.430690	
14.1048	 -0.430351	
14.1381	 -0.431571	
14.1714	 -0.434474	
14.2046	 -0.438264	
14.2379	 -0.439898	
14.2712	 -0.439297	
14.3044	 -0.435911	
14.3377	 -0.430843	
14.371	 -0.430039	
14.4042	 -0.433411	
14.4375	 -0.433758	
14.4708	 -0.430520	
14.504	 -0.430555	
14.5373	 -0.438301	
14.5706	 -0.450853	
14.6038	 -0.459110	
14.6371	 -0.458676	
14.6704	 -0.456878	
14.7036	 -0.459781	
14.7369	 -0.464322	
14.7702	 -0.468267	
14.8034	 -0.472397	
14.8367	 -0.476551	
14.87	 -0.481508	
14.9032	 -0.485607	
14.9365	 -0.485013	
14.9698	 -0.482432	
15.003	 -0.482883	
15.0363	 -0.486126	
15.0696	 -0.489763	
15.1028	 -0.490368	
15.1361	 -0.486330	
15.1694	 -0.481513	
15.2026	 -0.479586	
15.2359	 -0.481948	
15.2692	 -0.488732	
15.3024	 -0.495537	
15.3357	 -0.498674	
15.369	 -0.499539	
15.4022	 -0.498149	
15.4355	 -0.495031	
15.4687	 -0.495230	
15.502	 -0.500725	
15.5353	 -0.507642	
15.5685	 -0.510541	
15.6018	 -0.507001	
15.6351	 -0.502117	
15.6683	 -0.501513	
15.7016	 -0.503325	
15.7349	 -0.506150	
15.7681	 -0.511694	
15.8014	 -0.517297	
15.8347	 -0.519895	
15.8679	 -0.520797	
15.9012	 -0.522029	
15.9345	 -0.525130	
15.9677	 -0.528806	
16.001	 -0.529135	
16.0343	 -0.526110	
16.0675	 -0.521545	
16.1008	 -0.515675	
16.1341	 -0.512761	
16.1673	 -0.516315	
16.2006	 -0.520654	
16.2339	 -0.520456	
16.2671	 -0.516497	
16.3004	 -0.508994	
16.3337	 -0.499834	
16.3669	 -0.493817	
16.4002	 -0.492864	
16.4335	 -0.496461	
16.4667	 -0.501738	
16.5	 -0.503875	
16.5333	 -0.502538	
16.5665	 -0.500250	
16.5998	 -0.497497	
16.6331	 -0.497222	
16.6663	 -0.502019	
16.6996	 -0.508026	
16.7329	 -0.513408	
16.7661	 -0.519614	
16.7994	 -0.523609	
16.8327	 -0.524350	
16.8659	 -0.524856	
16.8992	 -0.523857	
16.9325	 -0.520048	
16.9657	 -0.515917	
16.999	 -0.513036	
17.0323	 -0.513498	
17.0655	 -0.517838	
17.0988	 -0.520837	
17.1321	 -0.519479	
17.1653	 -0.516307	
17.1986	 -0.513710	
17.2319	 -0.514048	
17.2651	 -0.517564	
17.2984	 -0.520072	
17.3317	 -0.519282	
17.3649	 -0.515228	
17.3982	 -0.508636	
17.4315	 -0.504020	
17.4647	 -0.503023	
17.498	 -0.501578	
17.5312	 -0.499606	
17.5645	 -0.499029	
17.5978	 -0.497873	
17.631	 -0.495814	
17.6643	 -0.494754	
17.6976	 -0.494728	
17.7308	 -0.494358	
17.7641	 -0.491876	
17.7974	 -0.488566	
17.8306	 -0.487665	
17.8639	 -0.486834	
17.8972	 -0.482573	
17.9304	 -0.478102	
17.9637	 -0.476826	
17.997	 -0.478544	
18.0302	 -0.482447	
18.0635	 -0.484942	
18.0968	 -0.483582	
18.13	 -0.480898	
18.1633	 -0.476638	
18.1966	 -0.469300	
18.2298	 -0.463060	
18.2631	 -0.461381	
18.2964	 -0.464291	
18.3296	 -0.471569	
18.3629	 -0.479173	
18.3962	 -0.483480	
18.4294	 -0.486606	
18.4627	 -0.487454	
18.496	 -0.483465	
18.5292	 -0.479946	
18.5625	 -0.480321	
18.5958	 -0.481161	
18.629	 -0.481918	
18.6623	 -0.482782	
18.6956	 -0.482005	
18.7288	 -0.481705	
18.7621	 -0.483424	
18.7954	 -0.484870	
18.8286	 -0.485117	
18.8619	 -0.482801	
18.8952	 -0.477699	
18.9284	 -0.475807	
18.9617	 -0.479712	
18.995	 -0.483440	
19.0282	 -0.484109	
19.0615	 -0.485932	
19.0948	 -0.492636	
19.128	 -0.502027	
19.1613	 -0.507814	
19.1946	 -0.507921	
19.2278	 -0.505606	
19.2611	 -0.502909	
19.2944	 -0.501515	
19.3276	 -0.503512	
19.3609	 -0.508674	
19.3942	 -0.518411	
19.4274	 -0.534080	
